<svg width="19" height="19" viewBox="0 0 19 19" fill="none" xmlns="http://www.w3.org/2000/svg">
<g id="arrow-back">
<g id="Layer 2">
<g id="arrow-ios-back">
<path id="Vector" d="M10.9619 14.8959C10.8523 14.8962 10.7439 14.8708 10.6448 14.8215C10.5457 14.7721 10.4584 14.7001 10.3893 14.6106L6.84363 9.98565C6.73566 9.84772 6.67664 9.67471 6.67664 9.49617C6.67664 9.31763 6.73566 9.14462 6.84363 9.00669L10.5141 4.38169C10.6387 4.22427 10.8178 4.12528 11.0119 4.10649C11.206 4.08769 11.3993 4.15064 11.5492 4.28148C11.6991 4.41232 11.7934 4.60034 11.8113 4.80417C11.8292 5.008 11.7693 5.21094 11.6446 5.36836L8.36322 9.50002L11.5345 13.6317C11.6243 13.7448 11.6813 13.8826 11.6989 14.0287C11.7164 14.1748 11.6937 14.3232 11.6335 14.4562C11.5732 14.5891 11.478 14.7012 11.359 14.7792C11.2399 14.8571 11.1022 14.8976 10.9619 14.8959Z" fill="#1F2C37"/>
</g>
</g>
</g>
</svg>
